<svg xmlns="http://www.w3.org/2000/svg" xmlns:xlink="http://www.w3.org/1999/xlink" aria-hidden="true" role="img" class="iconify iconify--logos" width="31.88" height="32" preserveAspectRatio="xMidYMid meet" viewBox="0 0 256 257"><defs><linearGradient id="IconifyId1813088fe1fbc01fb466" x1="128" x2="128" y1="256.5" y2=".5" gradientUnits="userSpaceOnUse"><stop offset="0" stop-color="#41d1ff"/><stop offset="1" stop-color="#bd34fe"/></linearGradient><linearGradient id="IconifyId1813088fe1fbc01fb467" x1="128" x2="128" y1="256.5" y2=".5" gradientUnits="userSpaceOnUse"><stop offset="0" stop-color="#ffea83"/><stop offset=".08" stop-color="#ffdd35"/><stop offset="1" stop-color="#ffa800"/></linearGradient></defs><path fill="url(#IconifyId1813088fe1fbc01fb466)" d="M256 128.5c0 70.9-57.6 128-128 128s-128-57.1-128-128s57.6-128 128-128s128 57.1 128 128Z"/><path fill="url(#IconifyId1813088fe1fbc01fb467)" d="m63.8 211.3l-18-31.1c-1-1.8-1.5-3.8-1.5-5.8c0-6.3 5.1-11.4 11.4-11.4h36.1c1.9 0 3.7.6 5.3 1.7l18 11.4l18-11.4a11.3 11.3 0 0 1 5.3-1.7h36.1c6.3 0 11.4 5.1 11.4 11.4c0 2-.5 4-1.5 5.8l-18 31.1a11.35 11.35 0 0 1-9.8 5.7H73.6c-4 0-7.6-2.1-9.8-5.7Z"/><path fill="#fff" d="M128 45.3L78.7 159.2h16.2L128 83.4l29.4 67.5l16.2-8.3L128 45.3z"/></svg>